LG_walk_Faster04																		
version=1																		
nRows=99																		
nColumns=19																		
inDegrees=yes																		
endheader																		
time	ground_force2_vx	ground_force2_vy	ground_force2_vz	ground_force2_px	ground_force2_py	ground_force2_pz	ground_torque2_x	ground_torque2_y	ground_torque2_z	ground_force1_vx	ground_force1_vy	ground_force1_vz	ground_force1_px	ground_force1_py	ground_force1_pz	ground_torque1_x	ground_torque1_y	ground_torque1_z
4.912	5.134424	219.450928	-18.395847	0.182076	0	-0.377901	4.00E-06	1.337757	1.00E-06	0	0	0	-0.13	0	0.305	0	0	0
4.913	5.370142	213.259308	-17.142075	0.182566	0	-0.378936	4.00E-06	1.337757	1.00E-06	0	0	0	-0.13	0	0.305	0	0	0
4.914	5.134424	205.161072	-13.850986	0.182566	0	-0.378936	6.00E-06	1.337757	1.00E-06	0	0	0	-0.13	0	0.305	0	0	0
4.915	4.900873	201.731613	-10.325306	0.183111	0	-0.380462	2.00E-06	1.337842	1.00E-06	0	0	0	-0.13	0	0.305	0	0	0
4.916	4.900873	195.68924	-8.131287	0.183111	0	-0.380691	4.00E-06	1.365552	1.00E-06	0	0	0	-0.13	0	0.305	0	0	0
4.917	5.052967	185.874939	-7.425995	0.1831	0	-0.380741	4.00E-06	1.365552	1.00E-06	0	0	0	-0.13	0	0.305	0	0	0
4.918	5.052967	180.205215	-6.485825	0.182402	0	-0.381647	5.00E-06	1.190577	2.00E-06	0	0	0	-0.13	0	0.305	0	0	0
4.919	4.668041	170.906586	-5.937389	0.1831	0	-0.380741	7.00E-06	1.190577	3.00E-06	0	0	0	-0.13	0	0.305	0	0	0
4.92	4.043072	167.823151	-5.153763	0.182665	0	-0.383806	7.00E-06	1.173663	2.00E-06	0	0	0	-0.13	0	0.305	0	0	0
4.921	4.043072	161.9505	-4.056854	0.182665	0	-0.381604	4.00E-06	1.260486	2.00E-06	0	0	0	-0.13	0	0.305	0	0	0
4.922	4.043072	157.493118	-3.821819	0.182665	0	-0.383441	4.00E-06	1.221606	2.00E-06	0	0	0	-0.13	0	0.305	0	0	0
4.923	3.730223	152.330994	-3.665119	0.183346	0	-0.383441	3.00E-06	1.221606	2.00E-06	0	0	0	-0.13	0	0.305	0	0	0
4.924	3.260231	145.099838	-3.038315	0.183346	0	-0.384348	5.00E-06	1.203125	3.00E-06	0	0	0	-0.13	0	0.305	0	0	0
4.925	3.029564	137.876038	-2.489639	0.182311	0	-0.38599	2.00E-06	1.165209	3.00E-06	0	0	0	-0.13	0	0.305	0	0	0
4.926	3.029564	130.293137	-2.176357	0.18136	0	-0.38599	2.00E-06	1.105271	1.00E-06	0	0	0	-0.13	0	0.305	0	0	0
4.927	3.029564	125.139488	-1.549553	0.18136	0	-0.38599	2.00E-06	1.073708	1.00E-06	0	0	0	-0.13	0	0.305	0	0	0
4.928	2.953876	121.532242	-0.922626	0.181824	0	-0.38713	4.00E-06	0.99885	1.00E-06	0	0	0	-0.13	0	0.305	0	0	0
4.929	2.953876	113.601379	-0.766006	0.181824	0	-0.383532	4.00E-06	0.99885	1.00E-06	0	0	0	-0.13	0	0.305	0	0	0
4.93	2.721045	111.040604	-0.531013	0.181824	0	-0.385799	4.00E-06	1.035194	1.00E-06	0	0	0	-0.13	0	0.305	0	0	0
4.931	2.721045	107.766983	-0.217693	0.181465	0	-0.385799	4.00E-06	1.087744	1.00E-06	0	0	0	-0.13	0	0.305	0	0	0
4.932	2.954597	100.358025	0.879177	0.183362	0	-0.388403	2.00E-06	1.087744	1.00E-06	0	0	0	-0.13	0	0.305	0	0	0
4.933	3.033171	94.870316	1.584354	0.183644	0	-0.391063	2.00E-06	1.056291	2.00E-06	0	0	0	-0.13	0	0.305	0	0	0
4.934	3.033171	90.73037	1.662766	0.183644	0	-0.391063	2.00E-06	1.032668	1.00E-06	0	0	0	-0.13	0	0.305	0	0	0
4.935	2.722488	85.744553	2.524521	0.183899	0	-0.389422	2.00E-06	1.027012	2.00E-06	0	0	0	-0.13	0	0.305	0	0	0
4.936	2.485327	83.345367	2.602852	0.182443	0	-0.389422	2.00E-06	1.032668	0.00E+00	0	0	0	-0.13	0	0.305	0	0	0
4.937	2.332512	78.172447	2.759556	0.182291	0	-0.38815	3.00E-06	1.060072	1.00E-06	0	0	0	-0.13	0	0.305	0	0	0
4.938	2.258268	74.734131	3.621311	0.182291	0	-0.390062	3.00E-06	1.060072	1.00E-06	0	0	0	-0.13	0	0.305	0	0	0
4.939	2.258268	72.168282	4.012962	0.186264	0	-0.38815	1.00E-06	0.989089	1.00E-06	0	0	0	-0.13	0	0.305	0	0	0
4.94	2.3354	67.697029	5.423393	0.187016	0	-0.383805	1.00E-06	0.989089	1.00E-06	0	0	0	-0.13	0	0.305	0	0	0
4.941	2.3354	65.112305	5.658104	0.186264	0	-0.383805	1.00E-06	1.088051	1.00E-06	0	0	0	-0.13	0	0.305	0	0	0
4.942	2.258268	61.322182	5.658104	0.187016	0	-0.386575	1.00E-06	1.088051	1.00E-06	0	0	0	-0.13	0	0.305	0	0	0
4.943	1.946865	59.257042	5.501606	0.187122	0	-0.390272	1.00E-06	0.972727	1.00E-06	0	0	0	-0.13	0	0.305	0	0	0
4.944	1.870457	54.782639	5.501606	0.189952	0	-0.386575	1.00E-06	0.972727	1.00E-06	0	0	0	-0.13	0	0.305	0	0	0
4.945	1.869736	52.049431	6.049755	0.189952	0	-0.388345	1.00E-06	1.025931	1.00E-06	0	0	0	-0.13	0	0.305	0	0	0
4.946	1.870457	49.456993	6.44157	0.189027	0	-0.388345	2.00E-06	1.03513	1.00E-06	0	0	0	-0.13	0	0.305	0	0	0
4.947	2.104731	46.354633	6.598152	0.189027	0	-0.388345	1.00E-06	1.03513	1.00E-06	0	0	0	-0.13	0	0.305	0	0	0
4.948	2.104731	46.191483	7.538239	0.189901	0	-0.391148	1.00E-06	0.978633	0.00E+00	0	0	0	-0.13	0	0.305	0	0	0
4.949	1.796936	42.744263	7.773472	0.189901	0	-0.393571	0	0.949138	0	0	0	0	-0.13	0	0.305	0	0	0
4.95	1.796936	40.001831	9.183502	0.19128	0	-0.393571	0	0.949138	0	0	0	0	-0.13	0	0.305	0	0	0
4.951	1.796936	38.945679	9.18354	0.187995	0	-0.397329	0.00E+00	0.976387	0	0	0	0	-0.13	0	0.305	0	0	0
4.952	1.409845	37.394691	9.18354	0.188088	0	-0.391749	1.00E-06	0.976387	0	0	0	0	-0.13	0	0.305	0	0	0
4.953	1.327665	32.072899	9.810268	0.188088	0	-0.391749	1.00E-06	0.976387	0	0	0	0	-0.13	0	0.305	0	0	0
4.954	1.32983	30.712446	10.593773	0.188088	0	-0.38798	1.00E-06	0.976911	0	0	0	0	-0.13	0	0.305	0	0	0
4.955	1.32983	27.769794	11.220577	0.187787	0	-0.38798	0	0.976911	0	0	0	0	-0.13	0	0.305	0	0	0
4.956	1.32983	25.531826	11.533901	0.186824	0	-0.392969	0	1.003601	0	0	0	0	-0.13	0	0.305	0	0	0
4.957	1.33416	24.327209	11.690521	0.187787	0	-0.399344	0.00E+00	0.835961	0	0	0	0	-0.13	0	0.305	0	0	0
4.958	1.102772	22.768515	12.160786	0.190318	0	-0.399344	1.00E-06	0.949463	0	0	0	0	-0.13	0	0.305	0	0	0
4.959	1.102772	21.399965	12.160786	0.192978	0	-0.397333	0.00E+00	0.776399	0	0	0	0	-0.13	0	0.305	0	0	0
4.96	0	0	0	0.2	0	-0.3	0	0	0	0	0	0	-0.13	0	0.305	0	0	0
4.961	0	0	0	0.2	0	-0.3	0	0	0	0	0	0	-0.13	0	0.305	0	0	0
4.962	0	0	0	0.2	0	-0.3	0	0	0	0	0	0	-0.13	0	0.305	0	0	0
4.963	0	0	0	0.2	0	-0.3	0	0	0	0	0	0	-0.13	0	0.305	0	0	0
4.964	0	0	0	0.2	0	-0.3	0	0	0	0	0	0	-0.13	0	0.305	0	0	0
4.965	0	0	0	0.2	0	-0.3	0	0	0	0	0	0	-0.13	0	0.305	0	0	0
4.966	0	0	0	0.2	0	-0.3	0	0	0	0	0	0	-0.13	0	0.305	0	0	0
4.967	0	0	0	0.2	0	-0.3	0	0	0	0	0	0	-0.13	0	0.305	0	0	0
4.968	0	0	0	0.2	0	-0.3	0	0	0	0	0	0	-0.13	0	0.305	0	0	0
4.969	0	0	0	0.2	0	-0.3	0	0	0	0	0	0	-0.13	0	0.305	0	0	0
4.97	0	0	0	0.2	0	-0.3	0	0	0	0	0	0	-0.13	0	0.305	0	0	0
4.971	0	0	0	0.2	0	-0.3	0	0	0	0	0	0	-0.13	0	0.305	0	0	0
4.972	0	0	0	0.2	0	-0.3	0	0	0	0	0	0	-0.13	0	0.305	0	0	0
4.973	0	0	0	0.2	0	-0.3	0	0	0	0	0	0	-0.13	0	0.305	0	0	0
4.974	0	0	0	0.2	0	-0.3	0	0	0	0	0	0	-0.13	0	0.305	0	0	0
4.975	0	0	0	0.2	0	-0.3	0	0	0	0	0	0	-0.13	0	0.305	0	0	0
4.976	0	0	0	0.2	0	-0.3	0	0	0	0	0	0	-0.13	0	0.305	0	0	0
4.977	0	0	0	0.2	0	-0.3	0	0	0	0	0	0	-0.13	0	0.305	0	0	0
4.978	0	0	0	0.2	0	-0.3	0	0	0	0	0	0	-0.13	0	0.305	0	0	0
4.979	0	0	0	0.2	0	-0.3	0	0	0	0	0	0	-0.13	0	0.305	0	0	0
4.98	0	0	0	0.2	0	-0.3	0	0	0	0	0	0	-0.13	0	0.305	0	0	0
4.981	0	0	0	0.2	0	-0.3	0	0	0	0	0	0	-0.13	0	0.305	0	0	0
4.982	0	0	0	0.2	0	-0.3	0	0	0	0	0	0	-0.13	0	0.305	0	0	0
4.983	0	0	0	0.2	0	-0.3	0	0	0	0	0	0	-0.13	0	0.305	0	0	0
4.984	0	0	0	0.2	0	-0.3	0	0	0	0	0	0	-0.13	0	0.305	0	0	0
4.985	0	0	0	0.2	0	-0.3	0	0	0	0	0	0	-0.13	0	0.305	0	0	0
4.986	0	0	0	0.2	0	-0.3	0	0	0	0	0	0	-0.13	0	0.305	0	0	0
4.987	0	0	0	0.2	0	-0.3	0	0	0	0	0	0	-0.13	0	0.305	0	0	0
4.988	0	0	0	0.2	0	-0.3	0	0	0	0	0	0	-0.13	0	0.305	0	0	0
4.989	0	0	0	0.2	0	-0.3	0	0	0	0	0	0	-0.13	0	0.305	0	0	0
4.99	0	0	0	0.2	0	-0.3	0	0	0	0	0	0	-0.13	0	0.305	0	0	0
4.991	0	0	0	0.2	0	-0.3	0	0	0	0	0	0	-0.13	0	0.305	0	0	0
4.992	0	0	0	0.2	0	-0.3	0	0	0	0	0	0	-0.13	0	0.305	0	0	0
4.993	0	0	0	0.2	0	-0.3	0	0	0	0	0	0	-0.13	0	0.305	0	0	0
4.994	0	0	0	0.2	0	-0.3	0	0	0	0	0	0	-0.13	0	0.305	0	0	0
4.995	0	0	0	0.2	0	-0.3	0	0	0	0	0	0	-0.13	0	0.305	0	0	0
4.996	0	0	0	0.2	0	-0.3	0	0	0	0	0	0	-0.13	0	0.305	0	0	0
4.997	0	0	0	0.2	0	-0.3	0	0	0	0	0	0	-0.13	0	0.305	0	0	0
4.998	0	0	0	0.2	0	-0.3	0	0	0	0	0	0	-0.13	0	0.305	0	0	0
4.999	0	0	0	0.2	0	-0.3	0	0	0	0	0	0	-0.13	0	0.305	0	0	0
5	0	0	0	0.2	0	-0.3	0	0	0	0	0	0	-0.13	0	0.305	0	0	0
5.001	0	0	0	0.2	0	-0.3	0	0	0	0	0	0	-0.13	0	0.305	0	0	0
5.002	0	0	0	0.2	0	-0.3	0	0	0	0	0	0	-0.13	0	0.305	0	0	0
5.003	0	0	0	0.2	0	-0.3	0	0	0	0	0	0	-0.13	0	0.305	0	0	0
5.004	0	0	0	0.2	0	-0.3	0	0	0	0	0	0	-0.13	0	0.305	0	0	0
5.005	0	0	0	0.2	0	-0.3	0	0	0	0	0	0	-0.13	0	0.305	0	0	0
5.006	0	0	0	0.2	0	-0.3	0	0	0	0	0	0	-0.13	0	0.305	0	0	0
5.007	0	0	0	0.2	0	-0.3	0	0	0	0	0	0	-0.13	0	0.305	0	0	0
5.008	0	0	0	0.2	0	-0.3	0	0	0	0	0	0	-0.13	0	0.305	0	0	0
5.009	0	0	0	0.2	0	-0.3	0	0	0	0	0	0	-0.13	0	0.305	0	0	0
5.01	0	0	0	0.2	0	-0.3	0	0	0	0	0	0	-0.13	0	0.305	0	0	0
